<!-- Generated by IcoMoon.io -->
<svg version="1.1" xmlns="http://www.w3.org/2000/svg" width="24" height="32" viewBox="0 0 24 32">
<title>kaiobrito</title>
<path d="M18.426 13.568l-4.197 0.434-0.712 1.161 4.66-0.853 1.735 1.271zM5.483 13.568l-1.487 2.013 1.732-1.271 4.663 0.852-0.715-1.161zM24.157 9.165l-3.533-6.521-1.609 1.319-0.051-0.069 1.104-1.642-1.451-1.523 0.769 1.642-0.452 1.481-0.796-1.077-1.505-2.046v0.805l-2.635-1.534 0.52 1.505-6.404-0.173h-2.031l0.565 0.643-3.105 0.67 1.582 0.808-2.528 1.798-1.517 1.059 0.885-0.093-1.968 5.303 1.869 3.314 2.444 11.732 0.449-0.64-2.872-14.406h6.006l3.616-1.648-0.673 1.648 5.324-3.159-1.406 2.049-0.76 1.11 3.033-2.291v0.012l0.036 1.537 0.027 1.298 1.053-2.414 2.54 1.546 0.736 3.296-2.276 11.42 0.446 0.64 2.222-10.655zM8.6 25.336l2.261-0.676 1.092 0.12 1.095-0.12 2.261 0.676 1.271 0.559-0.682-1.116-2.54-1.352-1.406 0.506-1.403-0.506-2.54 1.352-0.682 1.116zM16.503 28.895l-1.699 2.118-2.851-1.585-2.848 1.585-1.699-2.118 0.332-1.702-1.878 0.757 3.245 3.745 2.848 0.305 2.851-0.305 3.245-3.745-1.878-0.757z"></path>
</svg>
